<svg xmlns="http://www.w3.org/2000/svg" xmlns:xlink="http://www.w3.org/1999/xlink"><defs><style>
    .sprite-symbol-usage {display: none;}
    .sprite-symbol-usage:target {display: inline;}
  </style><symbol viewBox="0 0 23 31" id="copy"><path d="M11.622 25.027q-1.967 0-3.695-.74-1.728-.74-3.04-2.052-1.314-1.313-2.058-3.037-.745-1.723-.736-3.7.01-1.975.754-3.699.744-1.723 2.053-3.036Q6.208 7.45 7.932 6.71q1.723-.74 3.69-.74 1.976 0 3.704.74 1.728.74 3.032 2.053t2.044 3.036q.74 1.724.749 3.7.009 1.976-.731 3.7-.74 1.723-2.048 3.036-1.309 1.313-3.041 2.053-1.733.74-3.709.74Zm0-2.093q1.543 0 2.897-.578 1.353-.577 2.373-1.597 1.02-1.02 1.597-2.368.578-1.35.569-2.883-.01-1.543-.587-2.897-.578-1.353-1.597-2.373-1.02-1.02-2.364-1.597-1.345-.578-2.888-.578-1.534 0-2.878.578-1.345.577-2.364 1.601-1.02 1.025-1.602 2.374-.582 1.349-.591 2.892-.01 1.525.568 2.874.578 1.349 1.602 2.368 1.024 1.02 2.373 1.602 1.35.582 2.892.582Zm-5.27-7.435q0-1.48.722-2.698.722-1.219 1.94-1.94 1.219-.722 2.698-.722 1.282 0 2.37.55 1.086.55 1.8 1.502.712.952.883 2.153h-2.183q-.18-.93-1.002-1.52-.82-.592-1.868-.592-.902 0-1.642.442-.74.442-1.182 1.182-.442.74-.442 1.643 0 .902.442 1.642.442.74 1.182 1.182.74.442 1.642.442 1.047 0 1.774-.59.726-.592.915-1.521h2.184q-.171 1.2-.84 2.152-.667.952-1.709 1.502t-2.324.55q-1.48 0-2.698-.721-1.218-.722-1.94-1.94-.721-1.218-.721-2.698Z" /></symbol><symbol viewBox="0 0 7 15" id="digest"><path class="a" d="M7 7a.25.25 0 0 0-.19-.12l-3-.07L6.31.28a.21.21 0 0 0-.1-.28.22.22 0 0 0-.28.1L0 9.17a.2.2 0 0 0 0 .21.2.2 0 0 0 .2.1l2.93-.22-2.36 5.46a.2.2 0 0 0 .09.28.22.22 0 0 0 .28-.05L7 7.17A.2.2 0 0 0 7 7" /></symbol><symbol viewBox="0 0 10 19" id="facebook"><path d="m9.345 10.688.518-3.44H6.621v-2.23c0-.941.453-1.858 1.905-1.858H10V.232S8.662 0 7.384 0c-2.67 0-4.416 1.647-4.416 4.628v2.62H0v3.44h2.968V19h3.653v-8.313h2.724Z" /></symbol><symbol viewBox="0 0 16.86 8.34" id="rss"><path class="a" d="M0 .24a10.66 10.66 0 0 1 2-.17 3.32 3.32 0 0 1 2.34.66A2 2 0 0 1 5 2.27a2.12 2.12 0 0 1-1.55 2.06A2 2 0 0 1 4.64 6a13.58 13.58 0 0 0 .63 2.22H4.19a9.41 9.41 0 0 1-.54-1.94C3.41 5.17 3 4.75 2 4.71H1v3.51H0Zm1 3.68h1.11c1.12 0 1.82-.61 1.82-1.53S3.18.89 2.07.88A4.3 4.3 0 0 0 1 1ZM6.31 6.94a3.68 3.68 0 0 0 1.87.53c1.07 0 1.69-.56 1.69-1.38s-.43-1.18-1.52-1.6C7 4 6.22 3.33 6.22 2.19A2.33 2.33 0 0 1 8.83 0a3.6 3.6 0 0 1 1.79.4l-.29.85A3.12 3.12 0 0 0 8.79.86c-1.1 0-1.52.66-1.52 1.21 0 .76.49 1.13 1.61 1.56 1.37.53 2.06 1.19 2.06 2.38S10 8.34 8.11 8.34a4.13 4.13 0 0 1-2.06-.52ZM12.23 6.94a3.68 3.68 0 0 0 1.87.53c1.07 0 1.69-.56 1.69-1.38s-.43-1.18-1.52-1.6C13 4 12.13 3.33 12.13 2.19A2.34 2.34 0 0 1 14.75 0a3.59 3.59 0 0 1 1.78.4l-.28.85a3.19 3.19 0 0 0-1.54-.39c-1.1 0-1.52.66-1.52 1.21 0 .76.49 1.13 1.6 1.56 1.37.53 2.07 1.19 2.07 2.38S15.93 8.34 14 8.34a4.21 4.21 0 0 1-2-.52Z" /></symbol><symbol viewBox="0 0 17.49 17.491" id="shape"><path d="M12.502 11h-.794l-.276-.274A6.47 6.47 0 0 0 13 6.5 6.5 6.5 0 1 0 6.5 13a6.47 6.47 0 0 0 4.225-1.566l.276.274v.792l4.998 4.991 1.491-1.49-4.988-5ZM6.5 11a4.5 4.5 0 1 1 0-9 4.5 4.5 0 0 1 0 9Z" fill-rule="evenodd" /></symbol><symbol viewBox="0 0 20 16" id="twitter"><path d="M17.944 3.987c.013.175.013.35.013.526C17.957 9.85 13.832 16 6.294 16c-2.322 0-4.48-.662-6.294-1.813.33.038.647.05.99.05a8.29 8.29 0 0 0 5.089-1.725c-1.802-.037-3.313-1.2-3.833-2.8.254.038.508.063.774.063.368 0 .736-.05 1.079-.137-1.878-.376-3.287-2-3.287-3.963v-.05c.546.3 1.18.488 1.853.512A4.02 4.02 0 0 1 .838 2.775c0-.75.203-1.438.558-2.038a11.71 11.71 0 0 0 8.452 4.225 4.497 4.497 0 0 1-.102-.924c0-2.226 1.828-4.038 4.1-4.038 1.18 0 2.245.487 2.994 1.275A8.146 8.146 0 0 0 19.442.3a4.038 4.038 0 0 1-1.802 2.225A8.316 8.316 0 0 0 20 1.9a8.739 8.739 0 0 1-2.056 2.087Z" /></symbol><symbol viewBox="0 0 20 14" id="youtube"><path d="M19.582 2.19A2.507 2.507 0 0 0 17.814.42C16.254 0 10 0 10 0S3.746 0 2.186.419c-.86.23-1.538.91-1.768 1.772C0 3.753 0 7.014 0 7.014s0 3.26.418 4.824a2.47 2.47 0 0 0 1.768 1.743C3.746 14 10 14 10 14s6.254 0 7.814-.419a2.47 2.47 0 0 0 1.768-1.743C20 10.275 20 7.014 20 7.014s0-3.26-.418-4.823ZM7.955 9.976V4.054l5.227 2.96-5.227 2.96Z" /></symbol></defs><use id="copy-usage" xlink:href="#copy" class="sprite-symbol-usage" /><use id="digest-usage" xlink:href="#digest" class="sprite-symbol-usage" /><use id="facebook-usage" xlink:href="#facebook" class="sprite-symbol-usage" /><use id="rss-usage" xlink:href="#rss" class="sprite-symbol-usage" /><use id="shape-usage" xlink:href="#shape" class="sprite-symbol-usage" /><use id="twitter-usage" xlink:href="#twitter" class="sprite-symbol-usage" /><use id="youtube-usage" xlink:href="#youtube" class="sprite-symbol-usage" /></svg>