<?xml version="1.0" encoding="utf-8"?>
<svg width="136px" height="45px" viewBox="0 0 136 45" version="1.1" xmlns:xlink="http://www.w3.org/1999/xlink" xmlns="http://www.w3.org/2000/svg">
  <g id="Group-5">
    <path d="M135.583 0.360829C135.71 0.476651 135.811 0.616231 135.887 0.779569C135.963 0.943897 136 1.12703 136 1.32848C136 1.5329 135.963 1.71753 135.887 1.88086C135.811 2.0447 135.71 2.18428 135.583 2.30158C135.456 2.4179 135.309 2.50699 135.142 2.56837C134.975 2.62975 134.801 2.66093 134.619 2.66093C134.435 2.66093 134.261 2.62975 134.094 2.56837C133.927 2.50699 133.781 2.4179 133.654 2.30158C133.526 2.18428 133.425 2.0447 133.349 1.88086C133.274 1.71753 133.236 1.5329 133.236 1.32848C133.236 1.12703 133.274 0.943897 133.349 0.779569C133.425 0.616231 133.526 0.476651 133.654 0.360829C133.781 0.245997 133.927 0.156904 134.094 0.0940432C134.261 0.0311828 134.435 0 134.619 0C134.801 0 134.975 0.0311828 135.142 0.0940432C135.309 0.156904 135.456 0.245997 135.583 0.360829ZM135.335 2.08231C135.426 1.98827 135.498 1.8769 135.552 1.7492C135.606 1.62051 135.633 1.48093 135.633 1.32848C135.633 1.17653 135.606 1.03745 135.552 0.909249C135.498 0.783033 135.426 0.672656 135.335 0.580098C135.244 0.48754 135.136 0.415275 135.013 0.363304C134.889 0.311333 134.757 0.284604 134.619 0.284604C134.476 0.284604 134.345 0.311333 134.221 0.363304C134.097 0.415275 133.99 0.48754 133.898 0.580098C133.808 0.672656 133.736 0.783033 133.683 0.909249C133.63 1.03745 133.603 1.17653 133.603 1.32848C133.603 1.48093 133.63 1.62051 133.683 1.7492C133.736 1.8769 133.808 1.98827 133.898 2.08231C133.99 2.17537 134.097 2.24961 134.221 2.30158C134.345 2.35356 134.476 2.37929 134.619 2.37929C134.757 2.37929 134.889 2.35356 135.013 2.30158C135.136 2.24961 135.244 2.17537 135.335 2.08231ZM135 1.38887C135.048 1.37254 135.09 1.34878 135.126 1.31759C135.162 1.28641 135.19 1.24682 135.21 1.19831C135.23 1.1503 135.241 1.0914 135.241 1.02161C135.241 0.860743 135.19 0.746406 135.088 0.680081C134.986 0.614251 134.84 0.580098 134.651 0.580098L134.082 0.580098L134.082 2.07291L134.38 2.07291L134.38 1.4354L134.568 1.4354L134.935 2.07291L135.248 2.07291L134.845 1.42104C134.9 1.41659 134.952 1.4057 135 1.38887ZM134.38 1.20425L134.38 0.812236L134.633 0.812236C134.666 0.812236 134.702 0.814711 134.739 0.819661C134.776 0.824116 134.809 0.83253 134.839 0.845894C134.869 0.858763 134.894 0.877572 134.913 0.90133C134.932 0.925088 134.942 0.956766 134.942 0.997353C134.942 1.08744 134.915 1.14485 134.86 1.16812C134.804 1.19187 134.733 1.20425 134.647 1.20425L134.38 1.20425ZM126.898 0.83451L126.898 4.36163L123.917 4.36163L123.917 7.61948L126.898 7.61948L126.898 18.7062C126.898 19.5981 127.047 20.3183 127.348 20.8672C127.648 21.4161 128.058 21.8393 128.578 22.1363C129.098 22.4338 129.698 22.6337 130.379 22.7362C131.06 22.8391 131.783 22.8906 132.545 22.8906C133.03 22.8906 133.526 22.8792 134.035 22.857C134.543 22.8332 135.005 22.7882 135.421 22.7194L135.421 18.9457C135.189 18.9923 134.947 19.0269 134.694 19.0492C134.439 19.0725 134.173 19.0838 133.896 19.0838C133.065 19.0838 132.51 18.9457 132.233 18.672C131.956 18.3973 131.818 17.8484 131.818 17.0258L131.818 7.61948L135.421 7.61948L135.421 4.36163L131.818 4.36163L131.818 0.83451L126.898 0.83451ZM117.258 12.3612C116.577 12.1331 115.877 11.9385 115.161 11.7782C114.468 11.6188 113.786 11.4693 113.117 11.3317C112.447 11.1946 111.852 11.0407 111.333 10.8689C110.813 10.6977 110.391 10.4739 110.068 10.2002C109.744 9.92601 109.582 9.57211 109.582 9.13754C109.582 8.77176 109.675 8.47973 109.86 8.26244C110.045 8.04564 110.269 7.87983 110.536 7.76549C110.802 7.65116 111.095 7.57642 111.42 7.54276C111.743 7.50811 112.043 7.49079 112.32 7.49079C113.197 7.49079 113.96 7.6571 114.607 7.98823C115.253 8.31985 115.612 8.9544 115.681 9.89137L120.358 9.89137C120.266 8.79403 119.983 7.88478 119.51 7.16461C119.035 6.44443 118.441 5.86731 117.725 5.43273C117.009 4.99914 116.195 4.69028 115.283 4.50615C114.369 4.3245 113.429 4.23244 112.458 4.23244C111.489 4.23244 110.541 4.31807 109.618 4.48933C108.694 4.66108 107.862 4.95855 107.123 5.38125C106.384 5.80445 105.789 6.38256 105.339 7.11363C104.888 7.84518 104.663 8.78314 104.663 9.92601C104.663 10.7031 104.825 11.3609 105.148 11.898C105.471 12.436 105.899 12.8814 106.43 13.2348C106.961 13.5907 107.567 13.8758 108.249 14.0931C108.93 14.3109 109.629 14.4995 110.346 14.6589C112.1 15.0251 113.469 15.3909 114.451 15.7567C115.433 16.1225 115.924 16.6709 115.924 17.4029C115.924 17.837 115.82 18.1974 115.612 18.4834C115.404 18.769 115.144 18.9977 114.832 19.1695C114.52 19.3407 114.174 19.4664 113.793 19.5461C113.411 19.6273 113.048 19.6664 112.701 19.6664C112.216 19.6664 111.748 19.6095 111.298 19.4947C110.847 19.3803 110.449 19.2031 110.103 18.9631C109.756 18.7235 109.473 18.4151 109.254 18.037C109.034 17.6598 108.925 17.2084 108.925 16.6823L104.247 16.6823C104.293 17.8712 104.564 18.8606 105.061 19.6496C105.558 20.4386 106.194 21.0726 106.967 21.5527C107.741 22.0328 108.624 22.3763 109.618 22.5822C110.61 22.7872 111.627 22.8906 112.667 22.8906C113.682 22.8906 114.681 22.7926 115.664 22.5986C116.645 22.4055 117.518 22.0675 118.28 21.5874C119.042 21.1073 119.66 20.4732 120.134 19.6837C120.606 18.8953 120.844 17.9167 120.844 16.7511C120.844 15.928 120.681 15.236 120.358 14.6757C120.035 14.1159 119.608 13.6477 119.077 13.2695C118.545 12.8928 117.939 12.5894 117.258 12.3612ZM9.43945 4.31312C4.82823 4.31312 0.989547 7.58681 0.165008 11.9143C0.0565027 12.4785 0 13.0611 0 13.6566C0 14.2693 0.0600029 14.8677 0.174508 15.4478C0.285514 16.0161 0.448521 16.5669 0.659032 17.0931C2.0426 20.5529 5.45226 23 9.43945 23C13.4266 23 16.8358 20.5529 18.2189 17.0931L13.5731 17.0931C12.5831 18.2597 11.0985 19.0017 9.43945 19.0017C7.77887 19.0017 6.2948 18.2597 5.30475 17.0931C4.89423 16.61 4.56922 16.0542 4.35121 15.4478L18.7039 15.4478C18.8179 14.8677 18.8779 14.2693 18.8779 13.6566C18.8779 13.0611 18.8209 12.4785 18.7134 11.9143C17.8884 7.58681 14.0512 4.31312 9.43945 4.31312ZM42.5125 11.9143C43.3366 7.58681 47.1753 4.31312 51.7865 4.31312C56.3977 4.31312 60.2359 7.58681 61.0609 11.9143C61.1679 12.4785 61.2254 13.0611 61.2254 13.6566C61.2254 14.2693 61.1654 14.8677 61.0514 15.4478L46.6987 15.4478C46.9162 16.0542 47.2413 16.61 47.6518 17.0931C48.6423 18.2597 50.1259 19.0017 51.7865 19.0017C53.4456 19.0017 54.9301 18.2597 55.9207 17.0931L60.5659 17.0931C59.1833 20.5529 55.7737 23 51.7865 23C47.7993 23 44.3901 20.5529 43.0061 17.0931C42.796 16.5669 42.6325 16.0161 42.521 15.4478C42.407 14.8677 42.347 14.2693 42.347 13.6566C42.347 13.0611 42.404 12.4785 42.5125 11.9143ZM81.2539 11.9143C82.0784 7.58681 85.9171 4.31312 90.5278 4.31312C95.1391 4.31312 98.9772 7.58681 99.8028 11.9143C99.9093 12.4785 99.9668 13.0611 99.9668 13.6566C99.9668 14.2693 99.9063 14.8677 99.7928 15.4478L85.4396 15.4478C85.6581 16.0542 85.9831 16.61 86.3936 17.0931C87.3842 18.2597 88.8678 19.0017 90.5278 19.0017C92.1874 19.0017 93.6715 18.2597 94.6615 17.0931L99.3073 17.0931C97.9252 20.5529 94.5145 23 90.5278 23C86.5406 23 83.131 20.5529 81.7479 17.0931C81.5374 16.5669 81.3739 16.0161 81.2624 15.4478C81.1494 14.8677 81.0884 14.2693 81.0884 13.6566C81.0884 13.0611 81.1459 12.4785 81.2539 11.9143ZM73.456 5.40798C72.9475 5.73961 72.497 6.14003 72.1049 6.60777C71.7119 7.077 71.3994 7.58582 71.1694 8.13424L71.0994 8.13424L71.0994 4.36163L66.4222 4.36163L66.4222 22.9772L71.3424 22.9772L71.3424 14.5816C71.3424 13.7828 71.4234 13.0393 71.5844 12.3528C71.7454 11.6673 72.0179 11.0669 72.399 10.5516C72.78 10.0379 73.2825 9.6325 73.906 9.33503C74.5296 9.03755 75.2926 8.88857 76.1936 8.88857C76.4922 8.88857 76.8052 8.90639 77.1282 8.94005C77.4517 8.97469 77.7287 9.01528 77.9602 9.06032L77.9602 4.53288C77.5677 4.41855 77.2087 4.36163 76.8867 4.36163C76.2621 4.36163 75.6611 4.45319 75.0841 4.63584C74.5066 4.81947 73.9635 5.07635 73.456 5.40798ZM30.5815 17.1035L26.7978 4.43884L21.6355 4.43884L27.7683 22.9772L33.2426 22.9772L39.3064 4.43884L34.4201 4.43884L30.6515 17.1035L30.5815 17.1035ZM4.33471 11.9143C5.06474 9.81762 7.07334 8.31194 9.43945 8.31194C11.8046 8.31194 13.8132 9.81762 14.5432 11.9143L4.33471 11.9143ZM51.7865 8.31194C49.4209 8.31194 47.4123 9.81762 46.6822 11.9143L56.8902 11.9143C56.1602 9.81762 54.1516 8.31194 51.7865 8.31194ZM90.5278 8.31194C88.1622 8.31194 86.1536 9.81762 85.4231 11.9143L95.6316 11.9143C94.9025 9.81762 92.8934 8.31194 90.5278 8.31194Z" id="лого" fill="#FFFFFF" fill-rule="evenodd" stroke="none" />
    <path d="M42.2404 35.6606L42.2404 36.4177L43.3662 36.4177L43.3662 40.3693C43.3662 41.7652 44.0367 42.3394 44.9597 42.3394C45.3523 42.3394 45.7695 42.2738 46.073 42.105L45.8586 41.3737C45.6177 41.5297 45.3142 41.5829 45.0613 41.5829C44.5175 41.5829 44.1504 41.2436 44.1504 40.4994L44.1504 36.4177L45.8706 36.4177L45.8706 35.6606L44.1504 35.6606L44.1504 33L43.3662 33.535L43.3662 35.6606L42.2404 35.6606ZM84.4458 35.6606L84.4458 36.4177L85.5716 36.4177L85.5716 40.3693C85.5716 41.7652 86.2421 42.3394 87.1651 42.3394C87.5577 42.3394 87.9749 42.2738 88.2779 42.105L88.0635 41.3737C87.8231 41.5297 87.5197 41.5829 87.2667 41.5829C86.7229 41.5829 86.3558 41.2436 86.3558 40.4994L86.3558 36.4177L88.076 36.4177L88.076 35.6606L86.3558 35.6606L86.3558 33L85.5716 33.535L85.5716 35.6606L84.4458 35.6606ZM118.001 35.6606L118.001 36.4177L119.127 36.4177L119.127 40.3693C119.127 41.7652 119.797 42.3394 120.72 42.3394C121.112 42.3394 121.53 42.2738 121.834 42.105L121.619 41.3737C121.378 41.5297 121.075 41.5829 120.821 41.5829C120.278 41.5829 119.911 41.2436 119.911 40.4994L119.911 36.4177L121.632 36.4177L121.632 35.6606L119.911 35.6606L119.911 33L119.127 33.535L119.127 35.6606L118.001 35.6606ZM2.29004 33.7695C2.29004 34.1475 2.0111 34.4341 1.64452 34.4341C1.27744 34.4341 1 34.1475 1 33.7695C1 33.3914 1.27744 33.1038 1.64452 33.1038C2.0111 33.1038 2.29004 33.3914 2.29004 33.7695ZM49.7007 33.7695C49.7007 34.1475 49.4223 34.4341 49.0552 34.4341C48.6891 34.4341 48.4107 34.1475 48.4107 33.7695C48.4107 33.3914 48.6891 33.1038 49.0552 33.1038C49.4223 33.1038 49.7007 33.3914 49.7007 33.7695ZM74.3984 33.7695C74.3984 34.1475 74.1204 34.4341 73.7533 34.4341C73.3862 34.4341 73.1083 34.1475 73.1083 33.7695C73.1083 33.3914 73.3862 33.1038 73.7533 33.1038C74.1204 33.1038 74.3984 33.3914 74.3984 33.7695ZM98.1395 40.3827C98.1395 40.9172 98.3293 41.256 98.6458 41.4517C98.2912 41.7264 97.9882 42.1953 97.9882 42.8352C97.9882 44.1918 98.9873 45 100.619 45C102.099 45 103.238 44.3607 103.238 42.7298C103.238 41.5173 102.428 41.0091 101.328 41.0091L99.6829 41.0091C99.2783 41.0091 98.8992 40.8526 98.8992 40.3827C98.8992 40.0692 99.0254 39.8214 99.4175 39.6525C99.759 39.8601 100.151 39.9649 100.606 39.9649C101.821 39.9649 102.77 39.1035 102.77 37.7603C102.77 37.1995 102.618 36.7564 102.327 36.3908L103.212 35.8826L102.845 35.1906L101.707 35.8563C101.391 35.6606 101.011 35.5563 100.606 35.5563C99.392 35.5563 98.443 36.43 98.443 37.7603C98.443 38.3346 98.6328 38.8438 98.9237 39.2084C98.481 39.417 98.1395 39.8214 98.1395 40.3827ZM5.11703 35.6606L5.11703 42.2351L5.90127 42.2351L5.90127 39.3525C5.90127 37.4866 6.79869 36.3128 7.96254 36.3128C8.86046 36.3128 9.2656 36.8742 9.2656 37.8259L9.2656 42.2351L10.0498 42.2351L10.0498 37.7211C10.0498 36.3257 9.30316 35.5563 8.08874 35.5563C7.16577 35.5563 6.34397 36.1563 5.90127 37.0301L5.90127 35.6606L5.11703 35.6606ZM13.0186 35.6606L13.0186 42.2351L13.8023 42.2351L13.8023 39.3525C13.8023 37.4866 14.7002 36.3128 15.8641 36.3128C16.762 36.3128 17.1666 36.8742 17.1666 37.8259L17.1666 42.2351L17.9514 42.2351L17.9514 37.7211C17.9514 36.3257 17.2047 35.5563 15.9903 35.5563C15.0673 35.5563 14.245 36.1563 13.8023 37.0301L13.8023 35.6606L13.0186 35.6606ZM26.6447 38.9471C26.6447 37.2258 25.5319 35.5563 23.6599 35.5563C21.7875 35.5563 20.6747 37.2258 20.6747 38.9471C20.6747 40.6693 21.7875 42.3394 23.6599 42.3394C25.5319 42.3394 26.6447 40.6693 26.6447 38.9471ZM38.2766 38.1905L39.3388 38.1905L39.3388 37.9044C39.3388 36.7564 38.7323 36.3128 37.8714 36.3128C36.9996 36.3128 36.5433 36.8742 36.354 37.5388L35.5948 37.356C35.7596 36.2477 36.7206 35.5563 37.8714 35.5563C39.1239 35.5563 40.124 36.3908 40.124 37.8781L40.124 42.2351L39.5286 42.2351L39.3388 41.2172C38.9852 41.856 38.3397 42.3394 37.3286 42.3394C36.2659 42.3394 35.3424 41.791 35.3424 40.3429C35.3424 38.8825 36.4933 38.1905 38.2766 38.1905ZM58.2432 38.9471C58.2432 37.2258 57.1295 35.5563 55.2575 35.5563C53.386 35.5563 52.2723 37.2258 52.2723 38.9471C52.2723 40.6693 53.386 42.3394 55.2575 42.3394C57.1295 42.3394 58.2432 40.6693 58.2432 38.9471ZM60.8198 35.6606L60.8198 42.2351L61.6041 42.2351L61.6041 39.3525C61.6041 37.4866 62.5015 36.3128 63.6658 36.3128C64.5638 36.3128 64.9684 36.8742 64.9684 37.8259L64.9684 42.2351L65.7531 42.2351L65.7531 37.7211C65.7531 36.3257 65.006 35.5563 63.792 35.5563C62.8686 35.5563 62.0468 36.1563 61.6041 37.0301L61.6041 35.6606L60.8198 35.6606ZM77.2258 35.6606L77.2258 42.2351L78.0096 42.2351L78.0096 39.3525C78.0096 37.4866 78.9075 36.3128 80.0713 36.3128C80.9693 36.3128 81.3739 36.8742 81.3739 37.8259L81.3739 42.2351L82.1586 42.2351L82.1586 37.7211C82.1586 36.3257 81.412 35.5563 80.1975 35.5563C79.2746 35.5563 78.4528 36.1563 78.0096 37.0301L78.0096 35.6606L77.2258 35.6606ZM92.9437 35.5563C94.5889 35.5563 95.7392 36.7564 95.7392 38.5825L95.7392 38.9471L90.9336 38.9471C90.9336 40.4741 91.6672 41.5829 92.9437 41.5829C93.9183 41.5829 94.4371 41.1651 94.9049 40.1741L95.6 40.5258C94.9434 41.8695 94.1201 42.3394 92.9437 42.3394C91.2491 42.3394 90.1103 40.9043 90.1103 38.9471C90.1103 36.9914 91.2491 35.5563 92.9437 35.5563ZM105.678 35.6606L105.678 42.2351L106.462 42.2351L106.462 39.6912C106.462 37.4479 107.246 36.3128 108.22 36.3128C108.536 36.3128 108.84 36.3908 109.119 36.5478L109.295 35.7783C108.98 35.6342 108.701 35.5563 108.334 35.5563C107.474 35.5563 106.854 36.0128 106.462 36.8349L106.462 35.6606L105.678 35.6606ZM114.037 38.1905L115.1 38.1905L115.1 37.9044C115.1 36.7564 114.493 36.3128 113.632 36.3128C112.76 36.3128 112.304 36.8742 112.115 37.5388L111.355 37.356C111.52 36.2477 112.481 35.5563 113.632 35.5563C114.885 35.5563 115.884 36.3908 115.884 37.8781L115.884 42.2351L115.289 42.2351L115.1 41.2172C114.746 41.856 114.101 42.3394 113.089 42.3394C112.026 42.3394 111.103 41.791 111.103 40.3429C111.103 38.8825 112.254 38.1905 114.037 38.1905ZM129.599 38.9471C129.599 37.2258 128.485 35.5563 126.613 35.5563C124.742 35.5563 123.628 37.2258 123.628 38.9471C123.628 40.6693 124.742 42.3394 126.613 42.3394C128.485 42.3394 129.599 40.6693 129.599 38.9471ZM132.383 35.6606L132.383 42.2351L133.167 42.2351L133.167 39.6912C133.167 37.4479 133.952 36.3128 134.925 36.3128C135.242 36.3128 135.545 36.3908 135.823 36.5478L136 35.7783C135.684 35.6342 135.406 35.5563 135.039 35.5563C134.179 35.5563 133.559 36.0128 133.167 36.8349L133.167 35.6606L132.383 35.6606ZM2.03664 42.2351L1.2529 42.2351L1.2529 35.6606L2.03664 35.6606L2.03664 42.2351ZM29.2227 35.6606L28.4004 35.6606L30.5508 42.2351L31.4112 42.2351L33.5611 35.6606L32.7393 35.6606L30.981 41.1517L29.2227 35.6606ZM49.4478 42.2351L48.6641 42.2351L48.6641 35.6606L49.4478 35.6606L49.4478 42.2351ZM74.1455 42.2351L73.3617 42.2351L73.3617 35.6606L74.1455 35.6606L74.1455 42.2351ZM101.986 37.7603C101.986 38.7126 101.34 39.261 100.606 39.261C99.8722 39.261 99.2277 38.7126 99.2277 37.7603C99.2277 36.8086 99.8722 36.2612 100.606 36.2612C101.34 36.2612 101.986 36.8086 101.986 37.7603ZM25.8228 38.9471C25.8228 40.2526 25.0767 41.5829 23.6599 41.5829C22.2437 41.5829 21.4975 40.2526 21.4975 38.9471C21.4975 37.6431 22.2437 36.3128 23.6599 36.3128C25.0767 36.3128 25.8228 37.6431 25.8228 38.9471ZM57.4204 38.9471C57.4204 40.2526 56.6743 41.5829 55.2575 41.5829C53.8408 41.5829 53.0951 40.2526 53.0951 38.9471C53.0951 37.6431 53.8408 36.3128 55.2575 36.3128C56.6743 36.3128 57.4204 37.6431 57.4204 38.9471ZM94.9299 38.1905C94.7787 37.043 94.1081 36.3128 92.9437 36.3128C91.8946 36.3128 91.1855 37.121 90.9831 38.1905L94.9299 38.1905ZM128.776 38.9471C128.776 40.2526 128.03 41.5829 126.613 41.5829C125.197 41.5829 124.451 40.2526 124.451 38.9471C124.451 37.6431 125.197 36.3128 126.613 36.3128C128.03 36.3128 128.776 37.6431 128.776 38.9471ZM37.4042 41.5829C38.214 41.5829 39.3388 40.9694 39.3388 39.1955L39.3388 38.9471L38.3021 38.9471C36.8343 38.9471 36.1647 39.4692 36.1647 40.3429C36.1647 41.1651 36.645 41.5829 37.4042 41.5829ZM113.164 41.5829C113.975 41.5829 115.1 40.9694 115.1 39.1955L115.1 38.9471L114.062 38.9471C112.595 38.9471 111.925 39.4692 111.925 40.3429C111.925 41.1651 112.406 41.5829 113.164 41.5829ZM102.478 42.8352C102.478 43.6558 101.884 44.2698 100.619 44.2698C99.3539 44.2698 98.7474 43.7084 98.7474 42.861C98.7474 42.404 98.8731 41.9738 99.3163 41.6738C99.5056 41.6996 99.7085 41.713 99.9358 41.713L101.238 41.713C101.998 41.713 102.478 41.9996 102.478 42.8352Z" id="дескриптор" fill="#FFFFFF" fill-rule="evenodd" stroke="none" />
  </g>
</svg>