<?xml version="1.0" encoding="utf-8"?>
<svg width="100%" height="100%" viewBox="0 0 135.99316 44.164062" version="1.1" xmlns:xlink="http://www.w3.org/1999/xlink" xmlns="http://www.w3.org/2000/svg">
  <path d="M135.576 0.364563C135.704 0.481564 135.805 0.622562 135.88 0.787563C135.956 0.953564 135.993 1.13856 135.993 1.34206C135.993 1.54856 135.956 1.73506 135.88 1.90006C135.805 2.06556 135.704 2.20656 135.576 2.32506C135.449 2.44256 135.302 2.53256 135.136 2.59456C134.969 2.65656 134.794 2.68806 134.612 2.68806C134.429 2.68806 134.255 2.65656 134.088 2.59456C133.921 2.53256 133.774 2.44256 133.647 2.32506C133.52 2.20656 133.419 2.06556 133.343 1.90006C133.268 1.73506 133.23 1.54856 133.23 1.34206C133.23 1.13856 133.268 0.953564 133.343 0.787563C133.419 0.622562 133.52 0.481564 133.647 0.364563C133.774 0.248564 133.921 0.158564 134.088 0.0950623C134.255 0.0315628 134.429 6.29425e-05 134.612 6.29425e-05C134.794 6.29425e-05 134.969 0.0315628 135.136 0.0950623C135.302 0.158564 135.449 0.248564 135.576 0.364563ZM135.328 2.10356C135.419 2.00856 135.492 1.89606 135.546 1.76706C135.599 1.63706 135.626 1.49606 135.626 1.34206C135.626 1.18856 135.599 1.04806 135.546 0.918564C135.492 0.791063 135.419 0.679564 135.328 0.586063C135.237 0.492563 135.13 0.419563 135.007 0.367064C134.883 0.314564 134.751 0.287563 134.612 0.287563C134.47 0.287563 134.339 0.314564 134.214 0.367064C134.091 0.419563 133.983 0.492563 133.891 0.586063C133.802 0.679564 133.729 0.791063 133.677 0.918564C133.623 1.04806 133.597 1.18856 133.597 1.34206C133.597 1.49606 133.623 1.63706 133.677 1.76706C133.729 1.89606 133.802 2.00856 133.891 2.10356C133.983 2.19756 134.091 2.27256 134.214 2.32506C134.339 2.37756 134.47 2.40356 134.612 2.40356C134.751 2.40356 134.883 2.37756 135.007 2.32506C135.13 2.27256 135.237 2.19756 135.328 2.10356ZM134.994 1.40306C135.042 1.38656 135.083 1.36256 135.12 1.33106C135.156 1.29956 135.184 1.25956 135.203 1.21056C135.224 1.16206 135.234 1.10256 135.234 1.03206C135.234 0.869562 135.184 0.754063 135.082 0.687063C134.979 0.620564 134.833 0.586063 134.645 0.586063L134.076 0.586063L134.076 2.09406L134.374 2.09406L134.374 1.45006L134.562 1.45006L134.929 2.09406L135.242 2.09406L134.839 1.43556C134.893 1.43106 134.946 1.42006 134.994 1.40306ZM134.374 1.21656L134.374 0.820562L134.627 0.820562C134.66 0.820562 134.696 0.823063 134.732 0.828064C134.77 0.832563 134.802 0.841063 134.833 0.854563C134.862 0.867563 134.888 0.886562 134.907 0.910563C134.926 0.934563 134.936 0.966562 134.936 1.00756C134.936 1.09856 134.909 1.15656 134.854 1.18006C134.797 1.20406 134.727 1.21656 134.641 1.21656L134.374 1.21656ZM126.891 0.843063L126.891 4.40606L123.911 4.40606L123.911 7.69706L126.891 7.69706L126.891 18.8966C126.891 19.7976 127.041 20.5251 127.342 21.0796C127.641 21.6341 128.052 22.0616 128.572 22.3616C129.091 22.6621 129.691 22.8641 130.373 22.9676C131.054 23.0716 131.777 23.1236 132.539 23.1236C133.024 23.1236 133.52 23.1121 134.029 23.0896C134.536 23.0656 134.999 23.0201 135.414 22.9506L135.414 19.1386C135.183 19.1856 134.941 19.2206 134.688 19.2431C134.432 19.2666 134.167 19.2781 133.89 19.2781C133.059 19.2781 132.504 19.1386 132.227 18.8621C131.95 18.5846 131.811 18.0301 131.811 17.1991L131.811 7.69706L135.414 7.69706L135.414 4.40606L131.811 4.40606L131.811 0.843063L126.891 0.843063ZM117.252 12.4871C116.571 12.2566 115.871 12.0601 115.155 11.8981C114.463 11.7371 113.781 11.5861 113.112 11.4471C112.441 11.3086 111.847 11.1531 111.327 10.9796C110.808 10.8066 110.385 10.5806 110.063 10.3041C109.739 10.0271 109.577 9.66956 109.577 9.23056C109.577 8.86106 109.669 8.56606 109.855 8.34656C110.039 8.12756 110.264 7.96006 110.53 7.84456C110.796 7.72906 111.09 7.65356 111.414 7.61956C111.737 7.58456 112.038 7.56706 112.315 7.56706C113.192 7.56706 113.955 7.73506 114.602 8.06956C115.247 8.40456 115.607 9.04556 115.675 9.99206L120.353 9.99206C120.26 8.88356 119.977 7.96506 119.504 7.23756C119.029 6.51006 118.435 5.92706 117.719 5.48806C117.003 5.05006 116.19 4.73806 115.277 4.55206C114.363 4.36856 113.424 4.27556 112.453 4.27556C111.483 4.27556 110.536 4.36206 109.612 4.53506C108.689 4.70856 107.857 5.00906 107.118 5.43606C106.378 5.86356 105.784 6.44756 105.334 7.18606C104.883 7.92506 104.658 8.87256 104.658 10.0271C104.658 10.8121 104.819 11.4766 105.143 12.0191C105.466 12.5626 105.893 13.0126 106.425 13.3696C106.956 13.7291 107.562 14.0171 108.243 14.2366C108.924 14.4566 109.624 14.6471 110.34 14.8081C112.095 15.1781 113.464 15.5476 114.445 15.9171C115.427 16.2866 115.918 16.8406 115.918 17.5801C115.918 18.0186 115.814 18.3826 115.607 18.6716C115.398 18.9601 115.138 19.1911 114.827 19.3646C114.515 19.5376 114.168 19.6646 113.788 19.7451C113.406 19.8271 113.042 19.8666 112.696 19.8666C112.211 19.8666 111.742 19.8091 111.293 19.6931C110.842 19.5776 110.444 19.3986 110.098 19.1561C109.75 18.9141 109.467 18.6026 109.249 18.2206C109.029 17.8396 108.919 17.3836 108.919 16.8521L104.242 16.8521C104.288 18.0531 104.559 19.0526 105.056 19.8496C105.552 20.6466 106.189 21.2871 106.961 21.7721C107.736 22.2571 108.619 22.6041 109.612 22.8121C110.605 23.0191 111.622 23.1236 112.661 23.1236C113.677 23.1236 114.676 23.0246 115.658 22.8286C116.639 22.6336 117.512 22.2921 118.274 21.8071C119.036 21.3221 119.654 20.6816 120.128 19.8841C120.6 19.0876 120.839 18.0991 120.839 16.9216C120.839 16.0901 120.676 15.3911 120.353 14.8251C120.029 14.2596 119.602 13.7866 119.071 13.4046C118.539 13.0241 117.933 12.7176 117.252 12.4871ZM9.439 4.35706C4.828 4.35706 0.989502 7.66406 0.164993 12.0356C0.0565033 12.6056 0 13.1941 0 13.7956C0 14.4146 0.0599976 15.0191 0.1745 15.6051C0.285507 16.1791 0.448502 16.7356 0.658997 17.2671C2.0425 20.7621 5.452 23.2341 9.439 23.2341C13.426 23.2341 16.835 20.7621 18.218 17.2671L13.5725 17.2671C12.5825 18.4456 11.098 19.1951 9.439 19.1951C7.7785 19.1951 6.29449 18.4456 5.3045 17.2671C4.894 16.7791 4.569 16.2176 4.351 15.6051L18.703 15.6051C18.817 15.0191 18.877 14.4146 18.877 13.7956C18.877 13.1941 18.82 12.6056 18.7125 12.0356C17.8875 7.66406 14.0505 4.35706 9.439 4.35706ZM42.5105 12.0356C43.3345 7.66406 47.173 4.35706 51.784 4.35706C56.395 4.35706 60.233 7.66406 61.058 12.0356C61.165 12.6056 61.2225 13.1941 61.2225 13.7956C61.2225 14.4146 61.1625 15.0191 61.0485 15.6051L46.6965 15.6051C46.914 16.2176 47.239 16.7791 47.6495 17.2671C48.64 18.4456 50.1235 19.1951 51.784 19.1951C53.443 19.1951 54.9275 18.4456 55.918 17.2671L60.563 17.2671C59.1805 20.7621 55.771 23.2341 51.784 23.2341C47.797 23.2341 44.388 20.7621 43.004 17.2671C42.794 16.7356 42.6305 16.1791 42.519 15.6051C42.405 15.0191 42.345 14.4146 42.345 13.7956C42.345 13.1941 42.402 12.6056 42.5105 12.0356ZM81.25 12.0356C82.0745 7.66406 85.913 4.35706 90.5235 4.35706C95.1345 4.35706 98.9725 7.66406 99.798 12.0356C99.9045 12.6056 99.962 13.1941 99.962 13.7956C99.962 14.4146 99.9015 15.0191 99.788 15.6051L85.4355 15.6051C85.654 16.2176 85.979 16.7791 86.3895 17.2671C87.38 18.4456 88.8635 19.1951 90.5235 19.1951C92.183 19.1951 93.667 18.4456 94.657 17.2671L99.3025 17.2671C97.9205 20.7621 94.51 23.2341 90.5235 23.2341C86.5365 23.2341 83.127 20.7621 81.744 17.2671C81.5335 16.7356 81.37 16.1791 81.2585 15.6051C81.1455 15.0191 81.0845 14.4146 81.0845 13.7956C81.0845 13.1941 81.142 12.6056 81.25 12.0356ZM73.4525 5.46306C72.944 5.79806 72.4935 6.20256 72.1015 6.67506C71.7085 7.14906 71.396 7.66306 71.166 8.21706L71.096 8.21706L71.096 4.40606L66.419 4.40606L66.419 23.2111L71.339 23.2111L71.339 14.7301C71.339 13.9231 71.42 13.1721 71.581 12.4786C71.742 11.7861 72.0145 11.1796 72.3955 10.6591C72.7765 10.1401 73.279 9.73056 73.9025 9.43006C74.526 9.12956 75.289 8.97906 76.19 8.97906C76.4885 8.97906 76.8015 8.99706 77.1245 9.03106C77.448 9.06606 77.725 9.10706 77.9565 9.15256L77.9565 4.57906C77.564 4.46356 77.205 4.40606 76.883 4.40606C76.2585 4.40606 75.6575 4.49856 75.0805 4.68306C74.503 4.86856 73.96 5.12806 73.4525 5.46306ZM30.58 17.2776L26.7965 4.48406L21.6345 4.48406L27.767 23.2111L33.241 23.2111L39.3045 4.48406L34.4185 4.48406L30.65 17.2776L30.58 17.2776ZM4.3345 12.0356C5.0645 9.91756 7.073 8.39656 9.439 8.39656C11.804 8.39656 13.8125 9.91756 14.5425 12.0356L4.3345 12.0356ZM51.784 8.39656C49.4185 8.39656 47.41 9.91756 46.68 12.0356L56.8875 12.0356C56.1575 9.91756 54.149 8.39656 51.784 8.39656ZM90.5235 8.39656C88.158 8.39656 86.1495 9.91756 85.419 12.0356L95.627 12.0356C94.898 9.91756 92.889 8.39656 90.5235 8.39656Z" id="лого" fill="#BD243A" fill-rule="evenodd" stroke="none" />
  <path d="M41.8035 35.1216L41.8035 35.8546L42.9275 35.8546L42.9275 39.6806C42.9275 41.0321 43.597 41.5881 44.5185 41.5881C44.9105 41.5881 45.327 41.5246 45.63 41.3611L45.416 40.6531C45.1755 40.8041 44.8725 40.8556 44.62 40.8556C44.077 40.8556 43.7105 40.5271 43.7105 39.8066L43.7105 35.8546L45.428 35.8546L45.428 35.1216L43.7105 35.1216L43.7105 32.5456L42.9275 33.0636L42.9275 35.1216L41.8035 35.1216ZM83.942 35.1216L83.942 35.8546L85.066 35.8546L85.066 39.6806C85.066 41.0321 85.7355 41.5881 86.657 41.5881C87.049 41.5881 87.4655 41.5246 87.768 41.3611L87.554 40.6531C87.314 40.8041 87.011 40.8556 86.7585 40.8556C86.2155 40.8556 85.849 40.5271 85.849 39.8066L85.849 35.8546L87.5665 35.8546L87.5665 35.1216L85.849 35.1216L85.849 32.5456L85.066 33.0636L85.066 35.1216L83.942 35.1216ZM117.444 35.1216L117.444 35.8546L118.568 35.8546L118.568 39.6806C118.568 41.0321 119.237 41.5881 120.159 41.5881C120.55 41.5881 120.967 41.5246 121.271 41.3611L121.056 40.6531C120.816 40.8041 120.513 40.8556 120.26 40.8556C119.717 40.8556 119.351 40.5271 119.351 39.8066L119.351 35.8546L121.069 35.8546L121.069 35.1216L119.351 35.1216L119.351 32.5456L118.568 33.0636L118.568 35.1216L117.444 35.1216ZM1.91649 33.2906C1.91649 33.6566 1.638 33.9341 1.27199 33.9341C0.905487 33.9341 0.628494 33.6566 0.628494 33.2906C0.628494 32.9246 0.905487 32.6461 1.27199 32.6461C1.638 32.6461 1.91649 32.9246 1.91649 33.2906ZM49.252 33.2906C49.252 33.6566 48.974 33.9341 48.6075 33.9341C48.242 33.9341 47.964 33.6566 47.964 33.2906C47.964 32.9246 48.242 32.6461 48.6075 32.6461C48.974 32.6461 49.252 32.9246 49.252 33.2906ZM73.9105 33.2906C73.9105 33.6566 73.633 33.9341 73.2665 33.9341C72.9 33.9341 72.6225 33.6566 72.6225 33.2906C72.6225 32.9246 72.9 32.6461 73.2665 32.6461C73.633 32.6461 73.9105 32.9246 73.9105 33.2906ZM97.614 39.6936C97.614 40.2111 97.8035 40.5391 98.1195 40.7286C97.7655 40.9946 97.463 41.4486 97.463 42.0681C97.463 43.3816 98.4605 44.1641 100.09 44.1641C101.568 44.1641 102.704 43.5451 102.704 41.9661C102.704 40.7921 101.896 40.3001 100.798 40.3001L99.155 40.3001C98.751 40.3001 98.3725 40.1486 98.3725 39.6936C98.3725 39.3901 98.4985 39.1501 98.89 38.9866C99.231 39.1876 99.6225 39.2891 100.077 39.2891C101.289 39.2891 102.237 38.4551 102.237 37.1546C102.237 36.6116 102.085 36.1826 101.795 35.8286L102.678 35.3366L102.313 34.6666L101.176 35.3111C100.86 35.1216 100.481 35.0206 100.077 35.0206C98.8645 35.0206 97.917 35.8666 97.917 37.1546C97.917 37.7106 98.1065 38.2036 98.397 38.5566C97.955 38.7586 97.614 39.1501 97.614 39.6936ZM4.739 35.1216L4.739 41.4871L5.52199 41.4871L5.52199 38.6961C5.52199 36.8896 6.418 35.7531 7.57999 35.7531C8.4765 35.7531 8.881 36.2966 8.881 37.2181L8.881 41.4871L9.664 41.4871L9.664 37.1166C9.664 35.7656 8.91849 35.0206 7.70599 35.0206C6.7845 35.0206 5.96399 35.6016 5.52199 36.4476L5.52199 35.1216L4.739 35.1216ZM12.628 35.1216L12.628 41.4871L13.4105 41.4871L13.4105 38.6961C13.4105 36.8896 14.307 35.7531 15.469 35.7531C16.3655 35.7531 16.7695 36.2966 16.7695 37.2181L16.7695 41.4871L17.553 41.4871L17.553 37.1166C17.553 35.7656 16.8075 35.0206 15.595 35.0206C14.6735 35.0206 13.8525 35.6016 13.4105 36.4476L13.4105 35.1216L12.628 35.1216ZM26.2325 38.3036C26.2325 36.6371 25.1215 35.0206 23.2525 35.0206C21.383 35.0206 20.272 36.6371 20.272 38.3036C20.272 39.9711 21.383 41.5881 23.2525 41.5881C25.1215 41.5881 26.2325 39.9711 26.2325 38.3036ZM37.846 37.5711L38.9065 37.5711L38.9065 37.2941C38.9065 36.1826 38.301 35.7531 37.4415 35.7531C36.571 35.7531 36.1155 36.2966 35.9265 36.9401L35.1685 36.7631C35.333 35.6901 36.2925 35.0206 37.4415 35.0206C38.692 35.0206 39.6905 35.8286 39.6905 37.2686L39.6905 41.4871L39.096 41.4871L38.9065 40.5016C38.5535 41.1201 37.909 41.5881 36.8995 41.5881C35.8385 41.5881 34.9165 41.0571 34.9165 39.6551C34.9165 38.2411 36.0655 37.5711 37.846 37.5711ZM57.781 38.3036C57.781 36.6371 56.669 35.0206 54.8 35.0206C52.9315 35.0206 51.8195 36.6371 51.8195 38.3036C51.8195 39.9711 52.9315 41.5881 54.8 41.5881C56.669 41.5881 57.781 39.9711 57.781 38.3036ZM60.3535 35.1216L60.3535 41.4871L61.1365 41.4871L61.1365 38.6961C61.1365 36.8896 62.0325 35.7531 63.195 35.7531C64.0915 35.7531 64.4955 36.2966 64.4955 37.2181L64.4955 41.4871L65.279 41.4871L65.279 37.1166C65.279 35.7656 64.533 35.0206 63.321 35.0206C62.399 35.0206 61.5785 35.6016 61.1365 36.4476L61.1365 35.1216L60.3535 35.1216ZM76.7335 35.1216L76.7335 41.4871L77.516 41.4871L77.516 38.6961C77.516 36.8896 78.4125 35.7531 79.5745 35.7531C80.471 35.7531 80.875 36.2966 80.875 37.2181L80.875 41.4871L81.6585 41.4871L81.6585 37.1166C81.6585 35.7656 80.913 35.0206 79.7005 35.0206C78.779 35.0206 77.9585 35.6016 77.516 36.4476L77.516 35.1216L76.7335 35.1216ZM92.4265 35.0206C94.069 35.0206 95.2175 36.1826 95.2175 37.9506L95.2175 38.3036L90.4195 38.3036C90.4195 39.7821 91.152 40.8556 92.4265 40.8556C93.3995 40.8556 93.9175 40.4511 94.3845 39.4916L95.0785 39.8321C94.423 41.1331 93.601 41.5881 92.4265 41.5881C90.7345 41.5881 89.5975 40.1986 89.5975 38.3036C89.5975 36.4101 90.7345 35.0206 92.4265 35.0206ZM105.141 35.1216L105.141 41.4871L105.923 41.4871L105.923 39.0241C105.923 36.8521 106.706 35.7531 107.678 35.7531C107.994 35.7531 108.298 35.8286 108.576 35.9806L108.752 35.2356C108.437 35.0961 108.158 35.0206 107.792 35.0206C106.934 35.0206 106.315 35.4626 105.923 36.2586L105.923 35.1216L105.141 35.1216ZM113.486 37.5711L114.547 37.5711L114.547 37.2941C114.547 36.1826 113.941 35.7531 113.082 35.7531C112.211 35.7531 111.757 36.2966 111.567 36.9401L110.809 36.7631C110.973 35.6901 111.933 35.0206 113.082 35.0206C114.332 35.0206 115.331 35.8286 115.331 37.2686L115.331 41.4871L114.736 41.4871L114.547 40.5016C114.194 41.1201 113.55 41.5881 112.539 41.5881C111.479 41.5881 110.557 41.0571 110.557 39.6551C110.557 38.2411 111.706 37.5711 113.486 37.5711ZM129.023 38.3036C129.023 36.6371 127.911 35.0206 126.042 35.0206C124.174 35.0206 123.062 36.6371 123.062 38.3036C123.062 39.9711 124.174 41.5881 126.042 41.5881C127.911 41.5881 129.023 39.9711 129.023 38.3036ZM131.803 35.1216L131.803 41.4871L132.586 41.4871L132.586 39.0241C132.586 36.8521 133.37 35.7531 134.341 35.7531C134.658 35.7531 134.961 35.8286 135.237 35.9806L135.414 35.2356C135.099 35.0961 134.821 35.0206 134.455 35.0206C133.596 35.0206 132.977 35.4626 132.586 36.2586L132.586 35.1216L131.803 35.1216ZM28.8065 35.1216L27.9855 35.1216L30.1325 41.4871L30.9915 41.4871L33.138 35.1216L32.3175 35.1216L30.562 40.4381L28.8065 35.1216ZM1.6635 41.4871L0.880997 41.4871L0.880997 35.1216L1.6635 35.1216L1.6635 41.4871ZM48.9995 41.4871L48.217 41.4871L48.217 35.1216L48.9995 35.1216L48.9995 41.4871ZM73.658 41.4871L72.8755 41.4871L72.8755 35.1216L73.658 35.1216L73.658 41.4871ZM101.454 37.1546C101.454 38.0766 100.809 38.6076 100.077 38.6076C99.344 38.6076 98.7005 38.0766 98.7005 37.1546C98.7005 36.2331 99.344 35.7031 100.077 35.7031C100.809 35.7031 101.454 36.2331 101.454 37.1546ZM25.412 38.3036C25.412 39.5676 24.667 40.8556 23.2525 40.8556C21.8385 40.8556 21.0935 39.5676 21.0935 38.3036C21.0935 37.0411 21.8385 35.7531 23.2525 35.7531C24.667 35.7531 25.412 37.0411 25.412 38.3036ZM56.9595 38.3036C56.9595 39.5676 56.2145 40.8556 54.8 40.8556C53.3855 40.8556 52.641 39.5676 52.641 38.3036C52.641 37.0411 53.3855 35.7531 54.8 35.7531C56.2145 35.7531 56.9595 37.0411 56.9595 38.3036ZM94.4095 37.5711C94.2585 36.4601 93.589 35.7531 92.4265 35.7531C91.379 35.7531 90.671 36.5356 90.469 37.5711L94.4095 37.5711ZM128.202 38.3036C128.202 39.5676 127.457 40.8556 126.042 40.8556C124.628 40.8556 123.883 39.5676 123.883 38.3036C123.883 37.0411 124.628 35.7531 126.042 35.7531C127.457 35.7531 128.202 37.0411 128.202 38.3036ZM36.975 40.8556C37.7835 40.8556 38.9065 40.2616 38.9065 38.5441L38.9065 38.3036L37.8715 38.3036C36.406 38.3036 35.7375 38.8091 35.7375 39.6551C35.7375 40.4511 36.217 40.8556 36.975 40.8556ZM112.615 40.8556C113.424 40.8556 114.547 40.2616 114.547 38.5441L114.547 38.3036L113.511 38.3036C112.047 38.3036 111.378 38.8091 111.378 39.6551C111.378 40.4511 111.857 40.8556 112.615 40.8556ZM101.946 42.0681C101.946 42.8626 101.352 43.4571 100.09 43.4571C98.8265 43.4571 98.221 42.9136 98.221 42.0931C98.221 41.6506 98.3465 41.2341 98.789 40.9436C98.978 40.9686 99.1805 40.9816 99.4075 40.9816L100.708 40.9816C101.466 40.9816 101.946 41.2591 101.946 42.0681Z" id="дескриптор" fill="#1A1919" fill-rule="evenodd" stroke="none" />
</svg>
