<svg width="100%" height="100%" viewBox="0 0 23 31" version="1.1" xmlns:xlink="http://www.w3.org/1999/xlink" xmlns="http://www.w3.org/2000/svg">
  <g>
    <path d="M11.6222 25.0274Q9.65508 25.0274 7.92709 24.2875Q6.1991 23.5475 4.88619 22.2346Q3.57328 20.9217 2.82885 19.1982Q2.08441 17.4748 2.09344 15.4986Q2.10246 13.5225 2.84689 11.799Q3.59133 10.0756 4.89973 8.76264Q6.20812 7.44973 7.9316 6.70981Q9.65508 5.96989 11.6222 5.96989Q13.5983 5.96989 15.3263 6.70981Q17.0543 7.44973 18.3582 8.76264Q19.6621 10.0755 20.402 11.799Q21.1419 13.5225 21.1509 15.4986Q21.16 17.4748 20.42 19.1982Q19.6801 20.9217 18.3717 22.2346Q17.0633 23.5475 15.3308 24.2875Q13.5983 25.0274 11.6222 25.0274ZM11.6222 22.9339Q13.1652 22.9339 14.5187 22.3564Q15.8722 21.7789 16.8919 20.7593Q17.9115 19.7397 18.489 18.3906Q19.0665 17.0416 19.0575 15.5077Q19.0485 13.9647 18.471 12.6111Q17.8935 11.2576 16.8738 10.238Q15.8542 9.21832 14.5097 8.64082Q13.1652 8.06332 11.6222 8.06332Q10.0882 8.06332 8.74371 8.64082Q7.39922 9.21832 6.37957 10.2425Q5.35992 11.2666 4.77791 12.6156Q4.1959 13.9647 4.18688 15.5077Q4.17785 17.0326 4.75535 18.3816Q5.33285 19.7306 6.35701 20.7503Q7.38117 21.7699 8.73018 22.3519Q10.0792 22.9339 11.6222 22.9339ZM6.3525 15.4986Q6.3525 14.0188 7.07438 12.8006Q7.79625 11.5825 9.01441 10.8606Q10.2326 10.1387 11.7124 10.1387Q12.9937 10.1387 14.0811 10.6891Q15.1684 11.2396 15.8813 12.1915Q16.5941 13.1435 16.7655 14.3436L14.5819 14.3436Q14.4014 13.4142 13.5803 12.8232Q12.7591 12.2322 11.7124 12.2322Q10.8101 12.2322 10.0702 12.6743Q9.33023 13.1164 8.88809 13.8564Q8.44594 14.5963 8.44594 15.4986Q8.44594 16.401 8.88809 17.1409Q9.33023 17.8808 10.0702 18.323Q10.8101 18.7651 11.7124 18.7651Q12.7591 18.7651 13.4855 18.1741Q14.2119 17.583 14.4014 16.6536L16.5851 16.6536Q16.4136 17.8538 15.7459 18.8057Q15.0782 19.7577 14.036 20.3081Q12.9937 20.8586 11.7124 20.8586Q10.2326 20.8586 9.01441 20.1367Q7.79625 19.4148 7.07438 18.1966Q6.3525 16.9785 6.3525 15.4986Z" />
  </g>
</svg>
