<svg xmlns="http://www.w3.org/2000/svg" viewBox="0 0 16.86 8.34"><path class="a" d="M0,.24A10.66,10.66,0,0,1,2,.07,3.32,3.32,0,0,1,4.34.73,2,2,0,0,1,5,2.27,2.12,2.12,0,0,1,3.45,4.33v0A2,2,0,0,1,4.64,6a13.58,13.58,0,0,0,.63,2.22H4.19a9.41,9.41,0,0,1-.54-1.94C3.41,5.17,3,4.75,2,4.71H1V8.22H0ZM1,3.92H2.11c1.12,0,1.82-.61,1.82-1.53S3.18.89,2.07.88A4.3,4.3,0,0,0,1,1Z"/><path class="a" d="M6.31,6.94a3.68,3.68,0,0,0,1.87.53c1.07,0,1.69-.56,1.69-1.38s-.43-1.18-1.52-1.6C7,4,6.22,3.33,6.22,2.19A2.33,2.33,0,0,1,8.83,0a3.6,3.6,0,0,1,1.79.4l-.29.85A3.12,3.12,0,0,0,8.79.86c-1.1,0-1.52.66-1.52,1.21,0,.76.49,1.13,1.61,1.56,1.37.53,2.06,1.19,2.06,2.38S10,8.34,8.11,8.34a4.13,4.13,0,0,1-2.06-.52Z"/><path class="a" d="M12.23,6.94a3.68,3.68,0,0,0,1.87.53c1.07,0,1.69-.56,1.69-1.38s-.43-1.18-1.52-1.6C13,4,12.13,3.33,12.13,2.19A2.34,2.34,0,0,1,14.75,0a3.59,3.59,0,0,1,1.78.4l-.28.85A3.19,3.19,0,0,0,14.71.86c-1.1,0-1.52.66-1.52,1.21,0,.76.49,1.13,1.6,1.56,1.37.53,2.07,1.19,2.07,2.38S15.93,8.34,14,8.34A4.21,4.21,0,0,1,12,7.82Z"/></svg>