<svg width="100%" height="100%" viewBox="0 0 17.490234 17.49121" version="1.1" xmlns:xlink="http://www.w3.org/1999/xlink" xmlns="http://www.w3.org/2000/svg">
  <path d="M12.502 11.0002L11.708 11.0002L11.432 10.7262C12.407 9.58921 13 8.11521 13 6.50021C13 2.91021 10.09 0.000213623 6.5 0.000213623C2.91003 0.000213623 0 2.91021 0 6.50021C0 10.0902 2.91003 13.0002 6.5 13.0002C8.11499 13.0002 9.58801 12.4082 10.725 11.4342L11.001 11.7082L11.001 12.5002L15.999 17.4912L17.49 16.0002L12.502 11.0002L12.502 11.0002ZM6.5 11.0002C4.01404 11.0002 2 8.98621 2 6.50021C2 4.01521 4.01404 2.00021 6.5 2.00021C8.98499 2.00021 11 4.01521 11 6.50021C11 8.98621 8.98499 11.0002 6.5 11.0002L6.5 11.0002Z" fill-rule="evenodd" stroke="none" />
</svg>
