<svg width="100%" height="100%" viewBox="0 0 20 16" version="1.1" xmlns:xlink="http://www.w3.org/1999/xlink" xmlns="http://www.w3.org/2000/svg">
  <path d="M17.9442 3.98748C17.9569 4.16248 17.9569 4.33751 17.9569 4.5125C17.9569 9.84998 13.8325 16 6.29443 16C3.97205 16 1.8147 15.3375 0 14.1875C0.329956 14.225 0.647217 14.2375 0.989868 14.2375C2.90601 14.2375 4.67004 13.6 6.07874 12.5125C4.27661 12.475 2.76648 11.3125 2.24622 9.7125C2.5 9.74997 2.75378 9.77499 3.02026 9.77499C3.38831 9.77499 3.75635 9.72496 4.099 9.63751C2.22083 9.26247 0.812134 7.63749 0.812134 5.67499L0.812134 5.62501C1.35779 5.92501 1.99243 6.11251 2.66492 6.13748C1.56091 5.41247 0.837524 4.17498 0.837524 2.77497C0.837524 2.02499 1.04053 1.33749 1.39587 0.73748C3.4137 3.18748 6.44666 4.78745 9.84766 4.96248C9.7843 4.66248 9.74622 4.35001 9.74622 4.03751C9.74622 1.81248 11.5736 0 13.8452 0C15.0254 0 16.0913 0.487499 16.8401 1.275C17.7665 1.10001 18.6548 0.762489 19.4417 0.300003C19.1371 1.23752 18.4899 2.02502 17.6396 2.52499C18.4645 2.43753 19.264 2.21248 20 1.90001C19.4418 2.69998 18.7437 3.41245 17.9442 3.98748Z" stroke="none" />
</svg>
