<svg width="100%" height="100%" viewBox="0 0 20 14" version="1.1" xmlns:xlink="http://www.w3.org/1999/xlink" xmlns="http://www.w3.org/2000/svg">
  <path d="M19.582 2.19053C19.3521 1.32829 18.6743 0.649212 17.8138 0.418762C16.2542 0 10 0 10 0C10 0 3.74585 0 2.18616 0.418762C1.32568 0.64925 0.647949 1.32829 0.417969 2.19053C0 3.75338 0 7.01414 0 7.01414C0 7.01414 0 10.2749 0.417969 11.8378C0.647949 12.7 1.32568 13.3508 2.18616 13.5812C3.74585 14 10 14 10 14C10 14 16.2542 14 17.8138 13.5812C18.6743 13.3508 19.3521 12.7 19.582 11.8378C20 10.2749 20 7.01414 20 7.01414C20 7.01414 20 3.75338 19.582 2.19053ZM7.95459 9.97467L7.95459 4.05362L13.1818 7.01422L7.95459 9.97467Z" stroke="none" />
</svg>
